<?xml version="1.0" encoding="UTF-8" standalone="no"?>
<svg width="32px" height="32px" viewBox="0 0 32 32" version="1.1" xmlns="http://www.w3.org/2000/svg" xmlns:xlink="http://www.w3.org/1999/xlink" xmlns:sketch="http://www.bohemiancoding.com/sketch/ns">
    <!-- Generator: Sketch 3.3.3 (12081) - http://www.bohemiancoding.com/sketch -->
    <title>plus</title>
    <desc>Created with Sketch.</desc>
    <defs></defs>
    <g id="Page-1" stroke="none" stroke-width="1" fill="none" fill-rule="evenodd" sketch:type="MSPage">
        <g id="plus" sketch:type="MSArtboardGroup" fill="#FFFFFF">
            <g id="Fill-1-+-Fill-2" sketch:type="MSLayerGroup" transform="translate(1.000000, 1.000000)">
                <path d="M4.74962963,4.74962963 C-1.00246914,10.5017284 -1.00246914,19.8290123 4.74962963,25.5819753 C10.5017284,31.3340741 19.8290123,31.3340741 25.5819753,25.5819753 C31.3340741,19.8290123 31.3340741,10.5017284 25.5819753,4.74962963 C19.8290123,-1.00592593 10.5017284,-1.00592593 4.74962963,4.74962963 L4.74962963,4.74962963 Z M23.4983951,23.4983951 C18.8974074,28.1002469 11.4333333,28.1002469 6.83234568,23.4983951 C2.23135802,18.8974074 2.23135802,11.4333333 6.83234568,6.83234568 C11.4333333,2.23135802 18.8974074,2.23135802 23.4983951,6.83234568 C28.1002469,11.4333333 28.1002469,18.8939506 23.4983951,23.4983951 L23.4983951,23.4983951 Z" id="Fill-1" sketch:type="MSShapeGroup"></path>
                <path d="M16.6392593,13.6923457 L16.6392593,8.53740741 C16.6392593,7.72419753 15.9807407,7.06567901 15.1675309,7.06567901 C14.3534568,7.06567901 13.6958025,7.72419753 13.6958025,8.53740741 L13.6958025,13.6923457 L8.5408642,13.6923457 C7.72679012,13.6923457 7.0691358,14.35 7.0691358,15.1640741 C7.0691358,15.977284 7.72679012,16.6358025 8.5408642,16.6358025 L13.6958025,16.6358025 L13.6958025,21.7907407 C13.6958025,22.6039506 14.3534568,23.2624691 15.1675309,23.2624691 C15.9807407,23.2624691 16.6392593,22.6039506 16.6392593,21.7907407 L16.6392593,16.6358025 L21.7941975,16.6358025 C22.6074074,16.6358025 23.2659259,15.977284 23.2659259,15.1640741 C23.2659259,14.35 22.6074074,13.6923457 21.7941975,13.6923457 L16.6392593,13.6923457 Z" id="Fill-2" sketch:type="MSShapeGroup"></path>
            </g>
        </g>
    </g>
</svg>