<?xml version="1.0" encoding="UTF-8" standalone="no"?>
<svg width="32px" height="32px" viewBox="0 0 32 32" version="1.1" xmlns="http://www.w3.org/2000/svg" xmlns:xlink="http://www.w3.org/1999/xlink" xmlns:sketch="http://www.bohemiancoding.com/sketch/ns">
    <!-- Generator: Sketch 3.3.3 (12081) - http://www.bohemiancoding.com/sketch -->
    <title>Artboard 1</title>
    <desc>Created with Sketch.</desc>
    <defs></defs>
    <g id="Page-1" stroke="none" stroke-width="1" fill="none" fill-rule="evenodd" sketch:type="MSPage">
        <g id="Artboard-1" sketch:type="MSArtboardGroup" fill="#FFFFFF">
            <path d="M27.8261957,25.1469612 C29.7799918,22.6151903 30.9563515,19.4516363 30.9563515,16.012547 C30.9563515,10.3060893 27.7464111,5.33717573 23.0400447,2.81004345 C22.9964414,2.78592251 22.950055,2.76644021 22.9045963,2.74603019 C20.8311233,1.65873245 18.4784039,1.03529893 15.9791035,1.03529893 C12.7877176,1.03529893 9.73641877,2.02796837 7.1508396,3.90847393 C3.29983882,6.72320203 1,11.2477337 1,16.0134747 C1,17.5061898 1.2217271,18.9645789 1.63827717,20.347822 C1.64940991,20.388642 1.66610902,20.4276066 1.68002495,20.4684267 C2.94822974,24.5467209 5.91974395,27.9654003 9.9525795,29.7280843 C11.8562783,30.5723172 13.8833649,31 15.9781758,31 C20.6975304,31 24.907562,28.7994281 27.654566,25.3751824 C27.6814701,25.3445674 27.7130129,25.3204465 27.7389893,25.287976 C27.7733152,25.243445 27.7965084,25.1942754 27.8261957,25.1469612 L27.8261957,25.1469612 Z M27.709302,16.0134747 C27.709302,18.0795259 27.169364,20.0184784 26.2295751,21.7069442 C25.3241121,20.4814149 24.5466757,18.9172647 24.4000946,18.2121911 C24.0095209,16.398482 22.3739357,16.0478006 21.3970376,15.8390617 C20.2392325,15.5904305 19.4024214,15.4113789 18.8355794,13.8379515 C18.5099467,12.9334162 18.7047697,12.4222379 18.8791826,12.1151598 C19.5258093,10.9796201 21.3571453,10.3979344 21.6799948,10.3367043 C22.7617262,10.1576527 23.1940476,9.42289181 23.5373071,7.05718427 C26.0848494,9.210442 27.709302,12.4231656 27.709302,16.0134747 L27.709302,16.0134747 Z M7.5358469,7.89677852 C7.96260199,9.10375322 8.24555916,10.4897795 7.82993682,11.2866983 C7.22041923,12.4574916 5.66647408,14.4734455 4.25447139,16.2027313 C4.25354366,16.1396458 4.24704956,16.0765602 4.24704956,16.0134747 C4.24704956,12.9695977 5.46051837,10.0648799 7.5358469,7.89677852 L7.5358469,7.89677852 Z M11.2616043,26.7565701 C8.36801932,25.4920762 6.17301381,23.1393569 5.05973968,20.2995801 C6.42071731,18.7122367 9.60560906,14.9066947 10.7096059,12.7868352 C11.891532,10.5176114 10.9619481,7.54702489 10.2058494,5.80660633 C11.9648225,4.81208143 13.9334623,4.28234849 15.9791035,4.28234849 C17.5794351,4.28234849 19.1046206,4.60705345 20.4952856,5.18966691 C20.367259,6.3112906 20.2587148,6.9959542 20.1817133,7.39766061 C18.9812327,7.81328296 17.128559,8.73173412 16.1247569,10.3932958 C15.3129945,11.7375743 15.1942452,13.3091463 15.7805696,14.936382 C16.9569293,18.2084802 19.4033492,18.7326468 20.7170127,19.0137485 C20.8988474,19.0527131 21.1261409,19.1018827 21.2857102,19.1473414 C21.648452,20.4934754 22.8044017,22.7404336 24.2043439,24.3695248 C22.0854121,26.459697 19.1816221,27.7529504 15.9791035,27.7529504 C14.340735,27.7529504 12.7552471,27.4189682 11.2616043,26.7565701 L11.2616043,26.7565701 Z" id="Shape" sketch:type="MSShapeGroup"></path>
        </g>
    </g>
</svg>